PathFileType	4	(X/Y/Z)	/Users/visionmauri/1_9_1_f_Sports2D/1_9_1_f_Sports2D_px_person00.trc
DataRate	CameraRate	NumFrames	NumMarkers	Units	OrigDataRate	OrigDataStartFrame	OrigNumFrames
30.0	30.0	4	22	m	30.0	43	349
Frame#	Time	Hip			RHip			RKnee			RAnkle			RBigToe			RSmallToe			RHeel			LHip			LKnee			LAnkle			LBigToe			LSmallToe			LHeel			Neck			Head			Nose			RShoulder			RElbow			RWrist			LShoulder			LElbow			LWrist			
		X1	Y1	Z1	X2	Y2	Z2	X3	Y3	Z3	X4	Y4	Z4	X5	Y5	Z5	X6	Y6	Z6	X7	Y7	Z7	X8	Y8	Z8	X9	Y9	Z9	X10	Y10	Z10	X11	Y11	Z11	X12	Y12	Z12	X13	Y13	Z13	X14	Y14	Z14	X15	Y15	Z15	X16	Y16	Z16	X17	Y17	Z17	X18	Y18	Z18	X19	Y19	Z19	X20	Y20	Z20	X21	Y21	Z21	X22	Y22	Z22
43	1.4374521072796935	660.0609158596196	802.3056782142397	0.0	732.2301028145566	823.5570196381143	0.0	714.8995122161857	1123.0585689817565	0.0	686.3271172390248	1410.3053541194433	0.0	651.7493663790844	1444.2498087298275	0.0	716.7907969560082	1466.7143804409511	0.0	678.1260645246894	1454.4787198808208	0.0	590.507579489281	812.6754913955932	0.0	584.0116935486002	1029.4660623006885	0.0	582.2820988171619	1090.9563097784132	0.0	578.0511772850726	1104.7751423888799	0.0	546.3547596463936	1108.1462047126727	0.0	581.6242451016492	1131.5071543935044	0.0	647.1804451635323	412.4804292712542	0.0	627.5839043759921	306.2145483597981	0.0	639.0863440323847	371.97159238235577	0.0	777.5091482259793	449.13258228297815	0.0	871.4616206449325	651.8219652920119	0.0	864.1488924356801	799.3643545095273	0.0	525.7353173983057	445.2288635522805	0.0	459.9419106798257	646.778008261228	0.0	457.9077035314966	672.2048799868714	0.0
44	1.4708812260536397	657.4810662536484	803.265294414012	0.0	730.858467992638	825.8371005438516	0.0	715.1411819683184	1126.0514922542477	0.0	685.5077112660903	1411.4386165989308	0.0	653.7069706961726	1447.5240508849047	0.0	717.0570592668196	1466.6913176191176	0.0	675.6010943499266	1455.0616330142707	0.0	588.8008185917771	814.7940126817441	0.0	584.3777432301326	1036.292560435815	0.0	582.7661233088423	1087.8650703665835	0.0	579.070918937762	1107.308674577717	0.0	548.5739530238399	1104.652389688521	0.0	583.4970478707577	1125.6309205701905	0.0	644.3121939941425	413.0026736441737	0.0	625.1544119701035	308.75870600476054	0.0	636.6567575770811	376.04110621525	0.0	773.8510867811251	451.6133721334115	0.0	867.0282071073206	657.1202824856522	0.0	859.6392758369391	799.7131958048186	0.0	522.9235497373149	448.29015126159726	0.0	459.0817857821636	649.7465644541662	0.0	457.95361765273543	671.692385182425	0.0
45	1.504310344827586	655.372304885285	803.6055181189674	0.0	729.5763188268684	827.8946368312446	0.0	715.1409578054174	1127.004727145822	0.0	684.1637596660071	1413.6203200793873	0.0	655.4271112706567	1448.2145985693303	0.0	716.9247839687938	1466.3906627082008	0.0	674.833230508671	1456.522305170937	0.0	588.60103770041	819.1449071762911	0.0	584.4915924917441	1041.4269681625362	0.0	583.993725025497	1086.1951521243393	0.0	586.1136378997296	1104.6730354645144	0.0	551.6113209116821	1099.3968817092968	0.0	587.2745381888375	1111.6343737209077	0.0	641.7959427641024	413.71188719740246	0.0	624.1048259791278	311.7334189661237	0.0	633.629415532046	378.348073940696	0.0	770.8385311116081	453.9637893332739	0.0	861.5223150532241	659.9954288198397	0.0	854.9070649850137	800.093273915357	0.0	520.3187305804666	450.90926955747483	0.0	457.37893883047747	652.1408164156813	0.0	459.02048742752487	669.7035463821069	0.0
46	1.5377394636015325	653.2916954679997	803.6121502019585	0.0	727.5541733398503	828.3239877416504	0.0	714.4280069222814	1125.6395190420417	0.0	683.0401576529899	1416.289093265798	0.0	656.1011147007649	1446.8577475553582	0.0	717.060718197633	1466.3351112351422	0.0	675.2038024470336	1458.0100067236965	0.0	588.5166222850249	822.8593219725684	0.0	584.4363107636644	1043.775832024779	0.0	585.6709537303958	1082.4862517658232	0.0	594.1992288617389	1098.3413523588429	0.0	553.9335994228195	1093.676834112419	0.0	591.2046259394624	1088.6493880252694	0.0	639.566796499199	415.4918390073701	0.0	622.2764885969067	314.3474816235135	0.0	629.732990782905	381.20454921007627	0.0	768.9365291597508	455.9568743652708	0.0	855.666829526465	662.1235095860352	0.0	849.8515395853249	799.5529077325388	0.0	518.1253344789573	453.6326031345839	0.0	454.3376810253267	654.4676499622905	0.0	459.9765850228789	668.4967152093615	0.0
